<?xml version="1.0" encoding="UTF-8"?>
<svg id="Layer_1" data-name="Layer 1" xmlns="http://www.w3.org/2000/svg" viewBox="0 0 1127.79 936.81">
  <defs>
    <style>
      .cls-1 {
        fill: #2c7a26;
      }

      .cls-2 {
        fill: #754c24;
      }
    </style>
  </defs>
  <path class="cls-2" d="M694.17,249.36c-.25-63.35-27.15-111.36-58.82-168.17-19.61-35.19-39.21-62.47-53.67-81.19-17.34,18.35-40.85,44.87-65.48,79.18-43.99,61.34-69.63,96.91-76.29,148.94-1.76,14.08-13.07,102.31,44.24,148.81,30.29,24.51,66.11,26.27,77.05,26.65,15.96.63,57.31-.63,90.12-28.91,43.24-37.33,42.98-96.4,42.86-125.31ZM534.3,382.22c-4.02-.88,44.49-42.48,39.84-101.68-4.52-57.57-54.05-68.5-42.86-122.29,4.15-20.49,16.72-45.12,29.41-70.13,3.39-6.54,20.49-40.09,25.01-39.47,2.64.25-.63,12.32-3.39,27.02,0,0-3.52,19.23-5.15,67.87-2.01,57.82,29.29,74.28,27.78,122.04-1.89,66.99-66.24,117.52-70.64,116.64Z"/>
  <path class="cls-2" d="M375.05,293.1c-36.95-43.49-96.03-43.74-124.93-43.86-63.35-.25-111.49,26.14-168.55,57.44-35.32,19.36-62.84,38.71-81.57,53.04,18.1,17.47,44.37,41.23,78.55,66.11,60.96,44.49,96.4,70.39,148.31,77.42,14.08,2.01,102.18,13.95,149.19-43.11,24.76-29.91,26.77-65.86,27.27-76.8.75-15.84-.25-57.19-28.28-90.24ZM280.53,371.91c-57.57,4.52-68.5,54.05-122.29,42.98-20.36-4.27-45.12-16.72-70.13-29.54-6.54-3.27-40.09-20.36-39.47-24.89.25-2.64,12.32.63,27.02,3.27,0,0,19.23,3.65,67.87,5.28,57.82,1.88,74.41-29.29,122.04-27.9,66.99,2.01,117.64,66.24,116.64,70.64-.88,4.02-42.48-44.37-101.68-39.84Z"/>
  <path class="cls-2" d="M1046.22,315.85c-57.06-31.3-105.2-57.69-168.55-57.44-28.91.13-88.11.38-124.93,43.86-28.03,33.06-29.03,74.41-28.28,90.24.38,10.93,2.51,46.76,27.27,76.79,47.01,57.06,135.11,45.12,149.19,43.11,51.91-7.16,87.35-32.93,148.31-77.42,34.19-25.01,60.46-48.64,78.55-66.11-18.73-14.33-46.25-33.68-81.57-53.04ZM1048.11,376.18s-19.48-1.13-68,3.27c-57.69,5.28-70.13,38.33-117.52,42.86-66.87,6.54-125.06-51.03-124.68-55.55.38-4.02,47.76,38.84,105.95,26.9,56.43-11.69,61.08-62.09,115.88-57.82,20.86,1.63,46.88,10.93,73.28,20.49,6.91,2.39,42.36,15.21,42.36,19.73,0,2.76-12.32,1-27.27.13Z"/>
  <path class="cls-1" d="M24.19,896.88v39.93c265.44-1.23,481.29-212.45,489.96-476.05h-44.62c-7.45,251.2-192.3,436.13-445.34,436.13Z"/>
  <path class="cls-1" d="M1105.29,896.88v39.93c-265.44-1.23-481.29-212.45-489.96-476.05h44.62c7.45,251.2,192.3,436.13,445.34,436.13Z"/>
</svg>