<?xml version="1.0" encoding="UTF-8"?>
<svg id="Layer_2" data-name="Layer 2" xmlns="http://www.w3.org/2000/svg" viewBox="0 0 387.33 485.68">
  <defs>
    <style>
      .cls-1 {
        fill: #654734;
      }
    </style>
  </defs>
  <g id="Icon">
    <path class="cls-1" d="M355.48,71.13c-10.31-14.52-38.82-49.46-88.61-64.39-56.02-16.87-103.87,2.48-118.33,8.57C57.97,53.46,28.53,153.39,17.62,190.53c-10.31,35.07-42.03,142.83,18,224.75,8.9,12.18,38.08,50.73,91.09,65.06,49.73,13.45,91.36-2.14,104.34-7.23,87.68-34.33,119.27-131.05,133.06-173.21,14.12-43.24,48.52-148.65-8.63-228.76ZM202.27,158.54c-7.63,68.54,25.7,86.07,20.15,153.4-8.17,99.46-89.69,169.93-96.18,165.98-5.96-3.55,54.01-66.33,56.82-165.65,2.07-71.95-28.04-86.07-20.21-145.17C175.7,70.6,269.47,7.75,274.89,12.1c4.82,3.81-62.58,55.82-72.62,146.44Z"/>
  </g>
</svg>