<?xml version="1.0" encoding="UTF-8"?>
<svg id="Layer_2" data-name="Layer 2" xmlns="http://www.w3.org/2000/svg" viewBox="0 0 182.62 228.99">
  <defs>
    <style>
      .cls-1 {
        fill: #fff;
      }
    </style>
  </defs>
  <g id="Icon">
    <path class="cls-1" d="M167.6,33.54c-4.86-6.85-18.3-23.32-41.78-30.36-26.41-7.95-48.98,1.17-55.79,4.04C27.33,25.21,13.45,72.32,8.31,89.83c-4.86,16.54-19.82,67.34,8.49,105.97,4.2,5.74,17.96,23.92,42.95,30.67,23.45,6.34,43.07-1.01,49.2-3.41,41.34-16.19,56.23-61.79,62.73-81.67,6.66-20.39,22.88-70.09-4.07-107.86ZM95.37,74.75c-3.6,32.31,12.12,40.58,9.5,72.33-3.85,46.89-42.29,80.12-45.35,78.26-2.81-1.67,25.47-31.27,26.79-78.1.98-33.92-13.22-40.58-9.53-68.45C82.84,33.28,127.05,3.65,129.61,5.7c2.27,1.8-29.51,26.32-34.24,69.05Z"/>
  </g>
</svg>